STARTFONT 2.1
FONT -Adobe-ITC Souvenir-Light-I-Normal--14-140-75-75-P-82-ISO8859-1
SIZE 14 75 75
FONTBOUNDINGBOX 20 18 -2 -3

STARTPROPERTIES 30
FOUNDRY "Adobe"
FAMILY_NAME "ITC Souvenir"
WEIGHT_NAME "Light"
SLANT "I"
SETWIDTH_NAME "Normal"
ADD_STYLE_NAME ""
PIXEL_SIZE 14
POINT_SIZE 140
RESOLUTION_X 75
RESOLUTION_Y 75
SPACING "P"
AVERAGE_WIDTH 82
CHARSET_REGISTRY "ISO8859"
CHARSET_ENCODING "1"
CAP_HEIGHT 11
X_HEIGHT 7
FACE_NAME "ITC Souvenir Light Italic"
COPYRIGHT "Copyright (c) 1984, 1987 Adobe Systems Incorporated. All Rights Reserved. Copyright (c) 1988, 1991 Digital Equipment Corporation. All Rights Reserved."
NOTICE "ITC Souvenir is a registered trademark of International Typeface Corporation.  "
_DEC_DEVICE_FONTNAMES "PS=Souvenir-LightItalic"
_DEC_PRODUCTINFO "DECwindows Fonts V2.2, 07-Nov-1991"
RELATIVE_SETWIDTH 50
RELATIVE_WEIGHT 30
CHARSET_COLLECTIONS "ASCII ISO8859-1 ADOBE-STANDARD"
FULL_NAME "ITC Souvenir Light Italic"
WEIGHT 10
QUAD_WIDTH 9
DEFAULT_CHAR 32
FONT_DESCENT 3
FONT_ASCENT 13
ENDPROPERTIES

CHARS 191

STARTCHAR space
ENCODING 32
SWIDTH 300 0
DWIDTH 5 0
BBX 1 1 0 0
BITMAP
00
ENDCHAR

STARTCHAR exclam
ENCODING 33
SWIDTH 300 0
DWIDTH 5 0
BBX 4 11 0 0
BITMAP
10
10
20
20
20
40
40
40
00
80
80
ENDCHAR

STARTCHAR quotedbl
ENCODING 34
SWIDTH 360 0
DWIDTH 5 0
BBX 4 4 1 7
BITMAP
50
50
A0
A0
ENDCHAR

STARTCHAR numbersign
ENCODING 35
SWIDTH 600 0
DWIDTH 9 0
BBX 9 9 0 1
BITMAP
1B00
1200
7F80
1200
2400
FF00
4800
4800
D800
ENDCHAR

STARTCHAR dollar
ENCODING 36
SWIDTH 600 0
DWIDTH 9 0
BBX 8 14 0 -2
BITMAP
04
04
1E
21
40
40
3C
02
02
82
84
78
20
20
ENDCHAR

STARTCHAR percent
ENCODING 37
SWIDTH 900 0
DWIDTH 13 0
BBX 11 11 1 0
BITMAP
3020
4840
8880
8900
9200
64C0
0920
1220
2220
4240
8180
ENDCHAR

STARTCHAR ampersand
ENCODING 38
SWIDTH 820 0
DWIDTH 12 0
BBX 11 11 0 0
BITMAP
0F00
1080
1080
1100
0A00
34E0
4440
8280
8100
C320
3CC0
ENDCHAR

STARTCHAR quoteright
ENCODING 39
SWIDTH 300 0
DWIDTH 4 0
BBX 2 3 2 8
BITMAP
40
40
80
ENDCHAR

STARTCHAR parenleft
ENCODING 40
SWIDTH 260 0
DWIDTH 4 0
BBX 5 13 0 -2
BITMAP
08
10
20
40
40
40
80
80
80
80
80
40
40
ENDCHAR

STARTCHAR parenright
ENCODING 41
SWIDTH 260 0
DWIDTH 4 0
BBX 5 13 -2 -2
BITMAP
10
10
08
08
08
08
08
08
10
10
20
40
80
ENDCHAR

STARTCHAR asterisk
ENCODING 42
SWIDTH 540 0
DWIDTH 8 0
BBX 5 5 2 6
BITMAP
20
A8
70
A8
20
ENDCHAR

STARTCHAR plus
ENCODING 43
SWIDTH 660 0
DWIDTH 9 0
BBX 7 7 1 1
BITMAP
10
10
10
FE
10
10
10
ENDCHAR

STARTCHAR comma
ENCODING 44
SWIDTH 300 0
DWIDTH 5 0
BBX 2 3 0 -1
BITMAP
40
40
80
ENDCHAR

STARTCHAR minus
ENCODING 45
SWIDTH 660 0
DWIDTH 9 0
BBX 7 1 1 4
BITMAP
FE
ENDCHAR

STARTCHAR period
ENCODING 46
SWIDTH 300 0
DWIDTH 5 0
BBX 1 2 1 0
BITMAP
80
80
ENDCHAR

STARTCHAR slash
ENCODING 47
SWIDTH 220 0
DWIDTH 4 0
BBX 7 13 -2 -2
BITMAP
02
02
04
04
08
08
10
10
20
20
40
40
80
ENDCHAR

STARTCHAR zero
ENCODING 48
SWIDTH 600 0
DWIDTH 9 0
BBX 8 11 0 0
BITMAP
1C
22
41
41
81
81
81
82
82
44
38
ENDCHAR

STARTCHAR one
ENCODING 49
SWIDTH 600 0
DWIDTH 9 0
BBX 4 11 2 0
BITMAP
10
70
10
10
20
20
20
40
40
40
E0
ENDCHAR

STARTCHAR two
ENCODING 50
SWIDTH 600 0
DWIDTH 9 0
BBX 8 11 0 0
BITMAP
1E
21
41
41
02
0C
10
20
40
82
FE
ENDCHAR

STARTCHAR three
ENCODING 51
SWIDTH 600 0
DWIDTH 9 0
BBX 8 11 0 0
BITMAP
1E
21
21
01
02
0C
02
02
82
84
78
ENDCHAR

STARTCHAR four
ENCODING 52
SWIDTH 600 0
DWIDTH 9 0
BBX 7 11 0 0
BITMAP
06
0A
12
22
44
44
84
FE
08
08
1C
ENDCHAR

STARTCHAR five
ENCODING 53
SWIDTH 600 0
DWIDTH 9 0
BBX 8 11 0 0
BITMAP
3F
20
20
40
78
04
02
02
82
84
78
ENDCHAR

STARTCHAR six
ENCODING 54
SWIDTH 600 0
DWIDTH 9 0
BBX 8 11 0 0
BITMAP
07
18
20
40
58
A4
C2
82
82
44
38
ENDCHAR

STARTCHAR seven
ENCODING 55
SWIDTH 600 0
DWIDTH 9 0
BBX 8 11 1 0
BITMAP
7F
82
84
04
08
10
10
20
20
40
40
ENDCHAR

STARTCHAR eight
ENCODING 56
SWIDTH 600 0
DWIDTH 9 0
BBX 8 11 0 0
BITMAP
0E
11
21
21
12
3C
44
82
82
84
78
ENDCHAR

STARTCHAR nine
ENCODING 57
SWIDTH 600 0
DWIDTH 9 0
BBX 8 11 0 0
BITMAP
1E
21
41
41
41
26
1A
04
04
18
E0
ENDCHAR

STARTCHAR colon
ENCODING 58
SWIDTH 300 0
DWIDTH 5 0
BBX 2 6 1 0
BITMAP
40
40
00
00
80
80
ENDCHAR

STARTCHAR semicolon
ENCODING 59
SWIDTH 300 0
DWIDTH 5 0
BBX 3 7 0 -1
BITMAP
20
20
00
00
40
40
80
ENDCHAR

STARTCHAR less
ENCODING 60
SWIDTH 660 0
DWIDTH 9 0
BBX 8 9 0 0
BITMAP
01
06
18
60
80
60
18
06
01
ENDCHAR

STARTCHAR equal
ENCODING 61
SWIDTH 660 0
DWIDTH 9 0
BBX 8 3 0 3
BITMAP
FF
00
FF
ENDCHAR

STARTCHAR greater
ENCODING 62
SWIDTH 660 0
DWIDTH 9 0
BBX 8 9 0 0
BITMAP
80
60
18
06
01
06
18
60
80
ENDCHAR

STARTCHAR question
ENCODING 63
SWIDTH 420 0
DWIDTH 6 0
BBX 6 11 0 0
BITMAP
38
44
84
04
08
30
40
40
00
80
80
ENDCHAR

STARTCHAR at
ENCODING 64
SWIDTH 820 0
DWIDTH 12 0
BBX 11 11 0 0
BITMAP
1F00
60C0
4440
9B20
9120
A120
A220
9A60
4D40
6080
1E00
ENDCHAR

STARTCHAR A
ENCODING 65
SWIDTH 740 0
DWIDTH 11 0
BBX 11 11 -1 0
BITMAP
0100
0300
0480
0480
0880
1080
1FC0
2040
2040
4040
E0E0
ENDCHAR

STARTCHAR B
ENCODING 66
SWIDTH 680 0
DWIDTH 10 0
BBX 10 11 0 0
BITMAP
3F00
10C0
1040
2040
2180
2F00
3100
4080
4080
4100
FE00
ENDCHAR

STARTCHAR C
ENCODING 67
SWIDTH 720 0
DWIDTH 10 0
BBX 9 11 1 0
BITMAP
0E00
3180
4080
4000
8000
8000
8000
8000
8000
4300
3C00
ENDCHAR

STARTCHAR D
ENCODING 68
SWIDTH 760 0
DWIDTH 11 0
BBX 10 11 0 0
BITMAP
3E00
1180
1080
2040
2040
2040
2040
4080
4080
4300
FC00
ENDCHAR

STARTCHAR E
ENCODING 69
SWIDTH 660 0
DWIDTH 9 0
BBX 9 11 0 0
BITMAP
3F80
1080
1000
2000
2000
3E00
2000
4000
4000
4100
FE00
ENDCHAR

STARTCHAR F
ENCODING 70
SWIDTH 580 0
DWIDTH 9 0
BBX 9 11 0 0
BITMAP
3F80
1080
1000
2000
2000
3E00
2000
4000
4000
4000
E000
ENDCHAR

STARTCHAR G
ENCODING 71
SWIDTH 760 0
DWIDTH 12 0
BBX 9 11 1 0
BITMAP
0E80
3180
4080
4000
8000
8000
8380
8080
8080
6100
3F00
ENDCHAR

STARTCHAR H
ENCODING 72
SWIDTH 820 0
DWIDTH 12 0
BBX 12 11 0 0
BITMAP
3870
1020
1020
2040
2040
3FC0
2040
4080
4080
4080
E1C0
ENDCHAR

STARTCHAR I
ENCODING 73
SWIDTH 300 0
DWIDTH 6 0
BBX 5 11 1 0
BITMAP
38
10
10
20
20
20
20
40
40
40
E0
ENDCHAR

STARTCHAR J
ENCODING 74
SWIDTH 500 0
DWIDTH 8 0
BBX 8 11 0 0
BITMAP
07
02
02
04
04
04
04
C8
88
88
70
ENDCHAR

STARTCHAR K
ENCODING 75
SWIDTH 700 0
DWIDTH 10 0
BBX 11 11 0 0
BITMAP
38E0
1040
1080
2100
2600
3800
2400
4200
4100
4100
E380
ENDCHAR

STARTCHAR L
ENCODING 76
SWIDTH 640 0
DWIDTH 9 0
BBX 8 11 0 0
BITMAP
38
10
10
10
20
20
20
40
40
41
FE
ENDCHAR

STARTCHAR M
ENCODING 77
SWIDTH 880 0
DWIDTH 13 0
BBX 14 11 -1 0
BITMAP
783C
1828
2848
2850
2490
2490
4510
4520
4620
4420
E070
ENDCHAR

STARTCHAR N
ENCODING 78
SWIDTH 780 0
DWIDTH 11 0
BBX 12 11 -1 0
BITMAP
3070
1820
1420
3420
2240
2340
2140
41C0
4080
4080
E080
ENDCHAR

STARTCHAR O
ENCODING 79
SWIDTH 780 0
DWIDTH 11 0
BBX 10 11 0 0
BITMAP
0F00
3180
40C0
4040
8040
8040
8040
8080
C080
6300
3C00
ENDCHAR

STARTCHAR P
ENCODING 80
SWIDTH 640 0
DWIDTH 10 0
BBX 10 11 0 0
BITMAP
3F80
1040
1040
2040
2080
2300
3C00
4000
4000
4000
E000
ENDCHAR

STARTCHAR Q
ENCODING 81
SWIDTH 780 0
DWIDTH 11 0
BBX 10 13 0 -2
BITMAP
0F00
3180
40C0
4040
8040
8040
8040
8080
C880
6B00
3C00
0800
0700
ENDCHAR

STARTCHAR R
ENCODING 82
SWIDTH 700 0
DWIDTH 10 0
BBX 10 11 0 0
BITMAP
3F80
1040
1040
2040
2080
2300
3C00
4200
4100
4100
E180
ENDCHAR

STARTCHAR S
ENCODING 83
SWIDTH 620 0
DWIDTH 9 0
BBX 8 11 1 0
BITMAP
1E
21
41
40
30
0C
02
82
82
C4
78
ENDCHAR

STARTCHAR T
ENCODING 84
SWIDTH 660 0
DWIDTH 10 0
BBX 9 11 1 0
BITMAP
FF80
8880
0800
1000
1000
1000
1000
2000
2000
2000
7000
ENDCHAR

STARTCHAR U
ENCODING 85
SWIDTH 760 0
DWIDTH 11 0
BBX 11 11 1 0
BITMAP
70E0
2040
4040
4080
4080
8080
8100
8100
8200
4600
3800
ENDCHAR

STARTCHAR V
ENCODING 86
SWIDTH 700 0
DWIDTH 10 0
BBX 11 11 0 0
BITMAP
E0E0
4040
4080
4080
4080
4100
4200
2200
2400
2800
1000
ENDCHAR

STARTCHAR W
ENCODING 87
SWIDTH 980 0
DWIDTH 14 0
BBX 14 11 0 0
BITMAP
E39C
4108
4308
4208
4210
4310
2510
2520
2940
10C0
1080
ENDCHAR

STARTCHAR X
ENCODING 88
SWIDTH 740 0
DWIDTH 11 0
BBX 11 11 0 0
BITMAP
70E0
2040
2080
1100
0A00
0C00
1200
2100
4080
4080
E1C0
ENDCHAR

STARTCHAR Y
ENCODING 89
SWIDTH 740 0
DWIDTH 11 0
BBX 11 11 1 0
BITMAP
E0E0
4040
4080
2100
2200
1C00
0800
0800
1000
1000
3800
ENDCHAR

STARTCHAR Z
ENCODING 90
SWIDTH 580 0
DWIDTH 9 0
BBX 9 11 0 0
BITMAP
1F80
2080
0100
0200
0400
0800
1000
2000
4000
8100
FE00
ENDCHAR

STARTCHAR bracketleft
ENCODING 91
SWIDTH 220 0
DWIDTH 4 0
BBX 6 13 -1 -2
BITMAP
1C
10
10
10
20
20
20
20
40
40
40
80
E0
ENDCHAR

STARTCHAR backslash
ENCODING 92
SWIDTH 600 0
DWIDTH 9 0
BBX 6 11 1 0
BITMAP
80
C0
40
60
20
30
10
18
08
0C
04
ENDCHAR

STARTCHAR bracketright
ENCODING 93
SWIDTH 220 0
DWIDTH 4 0
BBX 6 13 -2 -2
BITMAP
1C
04
04
08
08
08
10
10
10
20
20
20
E0
ENDCHAR

STARTCHAR asciicircum
ENCODING 94
SWIDTH 660 0
DWIDTH 9 0
BBX 7 4 0 3
BITMAP
10
28
44
82
ENDCHAR

STARTCHAR underscore
ENCODING 95
SWIDTH 500 0
DWIDTH 7 0
BBX 7 1 0 -2
BITMAP
FE
ENDCHAR

STARTCHAR quoteleft
ENCODING 96
SWIDTH 300 0
DWIDTH 4 0
BBX 2 3 2 8
BITMAP
40
80
80
ENDCHAR

STARTCHAR a
ENCODING 97
SWIDTH 520 0
DWIDTH 8 0
BBX 7 7 0 0
BITMAP
3A
46
82
84
84
8C
76
ENDCHAR

STARTCHAR b
ENCODING 98
SWIDTH 540 0
DWIDTH 8 0
BBX 7 11 0 0
BITMAP
60
20
20
40
5C
62
42
82
82
C4
B8
ENDCHAR

STARTCHAR c
ENCODING 99
SWIDTH 460 0
DWIDTH 7 0
BBX 6 7 0 0
BITMAP
38
44
84
80
80
8C
70
ENDCHAR

STARTCHAR d
ENCODING 100
SWIDTH 580 0
DWIDTH 8 0
BBX 8 11 0 0
BITMAP
03
01
02
02
3A
46
82
84
84
85
7A
ENDCHAR

STARTCHAR e
ENCODING 101
SWIDTH 500 0
DWIDTH 8 0
BBX 6 7 1 0
BITMAP
38
44
88
F0
84
88
70
ENDCHAR

STARTCHAR f
ENCODING 102
SWIDTH 360 0
DWIDTH 5 0
BBX 8 14 -2 -3
BITMAP
03
04
08
08
3E
08
08
08
10
10
10
10
20
C0
ENDCHAR

STARTCHAR g
ENCODING 103
SWIDTH 520 0
DWIDTH 7 0
BBX 8 10 -1 -3
BITMAP
1D
22
42
42
44
4C
34
84
88
70
ENDCHAR

STARTCHAR h
ENCODING 104
SWIDTH 580 0
DWIDTH 8 0
BBX 7 11 0 0
BITMAP
60
20
20
40
5C
62
42
42
84
84
86
ENDCHAR

STARTCHAR i
ENCODING 105
SWIDTH 280 0
DWIDTH 4 0
BBX 3 10 1 0
BITMAP
20
20
00
C0
40
40
80
80
80
C0
ENDCHAR

STARTCHAR j
ENCODING 106
SWIDTH 260 0
DWIDTH 4 0
BBX 4 13 -1 -3
BITMAP
10
10
00
30
10
10
10
20
20
20
20
A0
40
ENDCHAR

STARTCHAR k
ENCODING 107
SWIDTH 560 0
DWIDTH 7 0
BBX 7 11 0 0
BITMAP
60
20
20
40
46
48
70
50
88
88
8C
ENDCHAR

STARTCHAR l
ENCODING 108
SWIDTH 300 0
DWIDTH 4 0
BBX 3 11 1 0
BITMAP
60
20
20
40
40
40
40
80
80
80
C0
ENDCHAR

STARTCHAR m
ENCODING 109
SWIDTH 880 0
DWIDTH 13 0
BBX 12 7 0 0
BITMAP
D8E0
6730
4210
4210
8420
8420
8420
ENDCHAR

STARTCHAR n
ENCODING 110
SWIDTH 600 0
DWIDTH 8 0
BBX 7 7 0 0
BITMAP
DC
62
42
42
84
84
86
ENDCHAR

STARTCHAR o
ENCODING 111
SWIDTH 560 0
DWIDTH 8 0
BBX 7 7 0 0
BITMAP
3C
42
82
82
82
84
78
ENDCHAR

STARTCHAR p
ENCODING 112
SWIDTH 580 0
DWIDTH 8 0
BBX 8 10 -1 -3
BITMAP
6C
32
21
21
21
42
5C
40
40
E0
ENDCHAR

STARTCHAR q
ENCODING 113
SWIDTH 560 0
DWIDTH 7 0
BBX 7 10 0 -3
BITMAP
32
4E
84
84
84
88
78
08
08
18
ENDCHAR

STARTCHAR r
ENCODING 114
SWIDTH 400 0
DWIDTH 6 0
BBX 6 7 0 0
BITMAP
CC
74
40
40
80
80
80
ENDCHAR

STARTCHAR s
ENCODING 115
SWIDTH 420 0
DWIDTH 6 0
BBX 6 7 0 0
BITMAP
38
44
20
10
88
88
70
ENDCHAR

STARTCHAR t
ENCODING 116
SWIDTH 360 0
DWIDTH 6 0
BBX 4 10 1 0
BITMAP
20
20
40
F0
40
40
80
90
A0
C0
ENDCHAR

STARTCHAR u
ENCODING 117
SWIDTH 580 0
DWIDTH 8 0
BBX 7 7 0 0
BITMAP
C6
42
42
84
84
84
7A
ENDCHAR

STARTCHAR v
ENCODING 118
SWIDTH 480 0
DWIDTH 8 0
BBX 7 7 0 0
BITMAP
C6
42
42
44
48
50
60
ENDCHAR

STARTCHAR w
ENCODING 119
SWIDTH 720 0
DWIDTH 11 0
BBX 10 7 0 0
BITMAP
C4C0
4440
4440
8880
8880
8880
7700
ENDCHAR

STARTCHAR x
ENCODING 120
SWIDTH 540 0
DWIDTH 8 0
BBX 8 7 0 0
BITMAP
42
A5
38
10
38
4A
84
ENDCHAR

STARTCHAR y
ENCODING 121
SWIDTH 500 0
DWIDTH 8 0
BBX 7 10 0 -3
BITMAP
C6
42
42
42
44
24
18
10
A0
40
ENDCHAR

STARTCHAR z
ENCODING 122
SWIDTH 460 0
DWIDTH 6 0
BBX 6 7 0 0
BITMAP
3C
48
10
20
40
88
F0
ENDCHAR

STARTCHAR braceleft
ENCODING 123
SWIDTH 300 0
DWIDTH 5 0
BBX 5 13 1 -2
BITMAP
18
20
20
20
40
80
40
40
40
80
80
80
60
ENDCHAR

STARTCHAR bar
ENCODING 124
SWIDTH 660 0
DWIDTH 9 0
BBX 1 11 4 0
BITMAP
80
80
80
80
80
80
80
80
80
80
80
ENDCHAR

STARTCHAR braceright
ENCODING 125
SWIDTH 300 0
DWIDTH 5 0
BBX 5 13 -1 -2
BITMAP
30
08
08
10
10
08
10
20
20
20
20
20
C0
ENDCHAR

STARTCHAR asciitilde
ENCODING 126
SWIDTH 660 0
DWIDTH 9 0
BBX 8 2 0 3
BITMAP
71
8E
ENDCHAR

STARTCHAR space
ENCODING 160
SWIDTH 300 0
DWIDTH 5 0
BBX 1 1 0 0
BITMAP
00
ENDCHAR

STARTCHAR exclamdown
ENCODING 161
SWIDTH 300 0
DWIDTH 4 0
BBX 4 11 -1 -3
BITMAP
10
10
00
20
20
40
40
40
80
80
80
ENDCHAR

STARTCHAR cent
ENCODING 162
SWIDTH 600 0
DWIDTH 9 0
BBX 7 12 1 -1
BITMAP
04
04
1C
62
42
C0
80
80
86
78
10
10
ENDCHAR

STARTCHAR sterling
ENCODING 163
SWIDTH 600 0
DWIDTH 9 0
BBX 8 11 0 0
BITMAP
0E
11
21
20
20
7C
20
20
40
F2
8C
ENDCHAR

STARTCHAR currency
ENCODING 164
SWIDTH 740 0
DWIDTH 9 0
BBX 8 8 0 1
BITMAP
99
66
42
81
81
42
66
99
ENDCHAR

STARTCHAR yen
ENCODING 165
SWIDTH 800 0
DWIDTH 9 0
BBX 9 11 1 0
BITMAP
E380
4100
4200
2400
2800
7E00
1000
FC00
2000
2000
7000
ENDCHAR

STARTCHAR brokenbar
ENCODING 166
SWIDTH 660 0
DWIDTH 9 0
BBX 1 11 4 0
BITMAP
80
80
80
80
00
00
00
80
80
80
80
ENDCHAR

STARTCHAR section
ENCODING 167
SWIDTH 560 0
DWIDTH 8 0
BBX 9 12 -1 -1
BITMAP
1F00
2080
2080
1800
6600
4100
4100
3300
0C00
8200
8200
7C00
ENDCHAR

STARTCHAR dieresis
ENCODING 168
SWIDTH 360 0
DWIDTH 5 0
BBX 4 2 1 8
BITMAP
90
90
ENDCHAR

STARTCHAR copyright
ENCODING 169
SWIDTH 820 0
DWIDTH 12 0
BBX 11 11 0 0
BITMAP
1F00
60C0
4E40
9120
A020
A020
A120
9220
4C40
60C0
1F00
ENDCHAR

STARTCHAR ordfeminine
ENCODING 170
SWIDTH 400 0
DWIDTH 6 0
BBX 6 8 0 3
BITMAP
1C
24
44
48
48
34
00
F8
ENDCHAR

STARTCHAR guillemotleft
ENCODING 171
SWIDTH 360 0
DWIDTH 6 0
BBX 5 6 0 1
BITMAP
28
50
A0
A0
50
50
ENDCHAR

STARTCHAR logicalnot
ENCODING 172
SWIDTH 660 0
DWIDTH 9 0
BBX 8 5 0 1
BITMAP
FF
01
01
01
01
ENDCHAR

STARTCHAR hyphen
ENCODING 173
SWIDTH 260 0
DWIDTH 4 0
BBX 4 1 0 4
BITMAP
F0
ENDCHAR

STARTCHAR registered
ENCODING 174
SWIDTH 820 0
DWIDTH 12 0
BBX 11 11 0 0
BITMAP
1F00
60C0
5E40
8920
8920
8E20
9220
9260
5240
6180
1E00
ENDCHAR

STARTCHAR macron
ENCODING 175
SWIDTH 300 0
DWIDTH 5 0
BBX 4 1 1 8
BITMAP
F0
ENDCHAR

STARTCHAR degree
ENCODING 176
SWIDTH 400 0
DWIDTH 6 0
BBX 4 4 1 7
BITMAP
60
90
90
60
ENDCHAR

STARTCHAR plusminus
ENCODING 177
SWIDTH 660 0
DWIDTH 9 0
BBX 7 7 1 1
BITMAP
10
10
FE
10
10
00
FE
ENDCHAR

STARTCHAR twosuperior
ENCODING 178
SWIDTH 360 0
DWIDTH 5 0
BBX 5 6 0 5
BITMAP
38
48
10
20
40
F8
ENDCHAR

STARTCHAR threesuperior
ENCODING 179
SWIDTH 360 0
DWIDTH 5 0
BBX 5 6 0 5
BITMAP
78
08
30
10
90
E0
ENDCHAR

STARTCHAR acute
ENCODING 180
SWIDTH 280 0
DWIDTH 4 0
BBX 3 2 1 8
BITMAP
60
80
ENDCHAR

STARTCHAR mu
ENCODING 181
SWIDTH 580 0
DWIDTH 8 0
BBX 8 10 -1 -3
BITMAP
63
21
21
22
42
42
7D
80
80
80
ENDCHAR

STARTCHAR paragraph
ENCODING 182
SWIDTH 680 0
DWIDTH 10 0
BBX 9 13 1 -2
BITMAP
3F80
4500
8500
8500
8A00
4A00
3A00
0A00
0A00
1400
1400
1400
1400
ENDCHAR

STARTCHAR periodcentered
ENCODING 183
SWIDTH 300 0
DWIDTH 5 0
BBX 1 2 1 3
BITMAP
80
80
ENDCHAR

STARTCHAR cedilla
ENCODING 184
SWIDTH 380 0
DWIDTH 6 0
BBX 3 3 1 -3
BITMAP
20
A0
C0
ENDCHAR

STARTCHAR onesuperior
ENCODING 185
SWIDTH 360 0
DWIDTH 5 0
BBX 3 6 1 5
BITMAP
20
60
20
40
40
E0
ENDCHAR

STARTCHAR ordmasculine
ENCODING 186
SWIDTH 400 0
DWIDTH 6 0
BBX 6 8 0 3
BITMAP
18
24
44
44
48
30
00
F8
ENDCHAR

STARTCHAR guillemotright
ENCODING 187
SWIDTH 360 0
DWIDTH 6 0
BBX 5 6 0 1
BITMAP
50
50
28
28
50
A0
ENDCHAR

STARTCHAR onequarter
ENCODING 188
SWIDTH 900 0
DWIDTH 13 0
BBX 11 11 0 0
BITMAP
2080
6080
2100
4200
4200
E440
08C0
0940
1240
23E0
2080
ENDCHAR

STARTCHAR onehalf
ENCODING 189
SWIDTH 900 0
DWIDTH 13 0
BBX 11 11 0 0
BITMAP
2080
6080
2100
4200
4200
E4E0
0920
0840
1080
2100
23E0
ENDCHAR

STARTCHAR threequarters
ENCODING 190
SWIDTH 900 0
DWIDTH 13 0
BBX 11 11 0 0
BITMAP
7880
0880
3100
1200
9200
E440
08C0
0940
1240
23E0
2080
ENDCHAR

STARTCHAR questiondown
ENCODING 191
SWIDTH 420 0
DWIDTH 6 0
BBX 6 11 -1 -3
BITMAP
04
04
00
08
08
30
40
80
84
88
70
ENDCHAR

STARTCHAR Agrave
ENCODING 192
SWIDTH 740 0
DWIDTH 11 0
BBX 11 14 -1 0
BITMAP
0600
0100
0000
0100
0300
0480
0480
0880
1080
1FC0
2040
2040
4040
E0E0
ENDCHAR

STARTCHAR Aacute
ENCODING 193
SWIDTH 740 0
DWIDTH 11 0
BBX 11 14 -1 0
BITMAP
00C0
0100
0000
0100
0300
0480
0480
0880
1080
1FC0
2040
2040
4040
E0E0
ENDCHAR

STARTCHAR Acircumflex
ENCODING 194
SWIDTH 740 0
DWIDTH 11 0
BBX 11 15 -1 0
BITMAP
0080
0140
0240
0000
0100
0300
0480
0480
0880
1080
1FC0
2040
2040
4040
E0E0
ENDCHAR

STARTCHAR Atilde
ENCODING 195
SWIDTH 740 0
DWIDTH 11 0
BBX 11 14 -1 0
BITMAP
0340
0480
0000
0100
0300
0480
0480
0880
1080
1FC0
2040
2040
4040
E0E0
ENDCHAR

STARTCHAR Adieresis
ENCODING 196
SWIDTH 740 0
DWIDTH 11 0
BBX 11 14 -1 0
BITMAP
0240
0240
0000
0100
0300
0480
0480
0880
1080
1FC0
2040
2040
4040
E0E0
ENDCHAR

STARTCHAR Aring
ENCODING 197
SWIDTH 740 0
DWIDTH 11 0
BBX 11 15 -1 0
BITMAP
0100
0280
0100
0000
0100
0300
0480
0480
0880
1080
1FC0
2040
2040
4040
E0E0
ENDCHAR

STARTCHAR AE
ENCODING 198
SWIDTH 960 0
DWIDTH 14 0
BBX 14 11 0 0
BITMAP
03FC
0284
0480
0880
1100
11F0
3F00
2100
4200
4208
E7F0
ENDCHAR

STARTCHAR Ccedilla
ENCODING 199
SWIDTH 720 0
DWIDTH 10 0
BBX 9 14 0 -3
BITMAP
0E00
3180
4080
4000
8000
8000
8000
8000
8000
4300
3C00
0800
2800
3000
ENDCHAR

STARTCHAR Egrave
ENCODING 200
SWIDTH 660 0
DWIDTH 9 0
BBX 9 14 0 0
BITMAP
0C00
0200
0000
3F80
1080
1000
2000
2000
3E00
2000
4000
4000
4100
FE00
ENDCHAR

STARTCHAR Eacute
ENCODING 201
SWIDTH 660 0
DWIDTH 9 0
BBX 9 14 0 0
BITMAP
0300
0400
0000
3F80
1080
1000
2000
2000
3E00
2000
4000
4000
4100
FE00
ENDCHAR

STARTCHAR Ecircumflex
ENCODING 202
SWIDTH 660 0
DWIDTH 9 0
BBX 9 15 0 0
BITMAP
0200
0500
0900
0000
3F80
1080
1000
2000
2000
3E00
2000
4000
4000
4100
FE00
ENDCHAR

STARTCHAR Edieresis
ENCODING 203
SWIDTH 660 0
DWIDTH 9 0
BBX 9 14 0 0
BITMAP
0900
0900
0000
3F80
1080
1000
2000
2000
3E00
2000
4000
4000
4100
FE00
ENDCHAR

STARTCHAR Igrave
ENCODING 204
SWIDTH 300 0
DWIDTH 6 0
BBX 5 14 1 0
BITMAP
60
10
00
38
10
10
20
20
20
20
40
40
40
E0
ENDCHAR

STARTCHAR Iacute
ENCODING 205
SWIDTH 300 0
DWIDTH 6 0
BBX 6 14 1 0
BITMAP
0C
10
00
38
10
10
20
20
20
20
40
40
40
E0
ENDCHAR

STARTCHAR Icircumflex
ENCODING 206
SWIDTH 300 0
DWIDTH 6 0
BBX 6 15 1 0
BITMAP
08
14
24
00
38
10
10
20
20
20
20
40
40
40
E0
ENDCHAR

STARTCHAR Idieresis
ENCODING 207
SWIDTH 300 0
DWIDTH 6 0
BBX 6 14 1 0
BITMAP
24
24
00
38
10
10
20
20
20
20
40
40
40
E0
ENDCHAR

STARTCHAR Eth
ENCODING 208
SWIDTH 760 0
DWIDTH 11 0
BBX 10 11 0 0
BITMAP
3E00
1180
1080
1040
2040
F840
2040
4080
4080
4300
FC00
ENDCHAR

STARTCHAR Ntilde
ENCODING 209
SWIDTH 780 0
DWIDTH 11 0
BBX 12 14 -1 0
BITMAP
0340
0480
0000
3830
1820
1420
3420
2240
2340
2140
41C0
4080
4080
E080
ENDCHAR

STARTCHAR Ograve
ENCODING 210
SWIDTH 780 0
DWIDTH 11 0
BBX 10 14 0 0
BITMAP
1800
0400
0000
0F00
3180
40C0
4040
8040
8040
8040
8080
C080
6300
3C00
ENDCHAR

STARTCHAR Oacute
ENCODING 211
SWIDTH 780 0
DWIDTH 11 0
BBX 10 14 0 0
BITMAP
0180
0200
0000
0F00
3180
40C0
4040
8040
8040
8040
8080
C080
6300
3C00
ENDCHAR

STARTCHAR Ocircumflex
ENCODING 212
SWIDTH 780 0
DWIDTH 11 0
BBX 10 15 0 0
BITMAP
0200
0500
0900
0000
0F00
3180
40C0
4040
8040
8040
8040
8080
C080
6300
3C00
ENDCHAR

STARTCHAR Otilde
ENCODING 213
SWIDTH 780 0
DWIDTH 11 0
BBX 10 14 0 0
BITMAP
0D00
1200
0000
0F00
3180
40C0
4040
8040
8040
8040
8080
C080
6300
3C00
ENDCHAR

STARTCHAR Odieresis
ENCODING 214
SWIDTH 780 0
DWIDTH 11 0
BBX 10 14 0 0
BITMAP
0900
0900
0000
0F00
3180
40C0
4040
8040
8040
8040
8080
C080
6300
3C00
ENDCHAR

STARTCHAR multiply
ENCODING 215
SWIDTH 660 0
DWIDTH 9 0
BBX 7 7 1 1
BITMAP
82
44
28
10
28
44
82
ENDCHAR

STARTCHAR Oslash
ENCODING 216
SWIDTH 780 0
DWIDTH 11 0
BBX 10 11 0 0
BITMAP
0E40
3180
4180
4240
8440
8840
8840
9080
6080
6300
9C00
ENDCHAR

STARTCHAR Ugrave
ENCODING 217
SWIDTH 760 0
DWIDTH 11 0
BBX 11 14 1 0
BITMAP
0C00
0200
0000
70E0
2040
4040
4080
4080
8080
8100
8100
8200
4600
3800
ENDCHAR

STARTCHAR Uacute
ENCODING 218
SWIDTH 760 0
DWIDTH 11 0
BBX 11 14 1 0
BITMAP
0180
0200
0000
70E0
2040
4040
4080
4080
8080
8100
8100
8200
4600
3800
ENDCHAR

STARTCHAR Ucircumflex
ENCODING 219
SWIDTH 760 0
DWIDTH 11 0
BBX 11 15 1 0
BITMAP
0200
0500
0900
0000
6060
2040
4040
4080
4080
8080
8100
8100
8200
4600
3800
ENDCHAR

STARTCHAR Udieresis
ENCODING 220
SWIDTH 760 0
DWIDTH 11 0
BBX 11 14 1 0
BITMAP
0900
0900
0000
70E0
2040
4040
4080
4080
8080
8100
8100
8200
4600
3800
ENDCHAR

STARTCHAR Yacute
ENCODING 221
SWIDTH 740 0
DWIDTH 11 0
BBX 11 14 1 0
BITMAP
0300
0400
0000
E0E0
4040
4080
2100
2200
1C00
0800
0800
1000
1000
3800
ENDCHAR

STARTCHAR Thorn
ENCODING 222
SWIDTH 640 0
DWIDTH 10 0
BBX 9 11 0 0
BITMAP
3800
1000
1F00
2080
2080
2080
2100
4600
7800
4000
E000
ENDCHAR

STARTCHAR germandbls
ENCODING 223
SWIDTH 540 0
DWIDTH 8 0
BBX 7 11 0 0
BITMAP
1C
22
22
24
28
28
44
42
42
52
CC
ENDCHAR

STARTCHAR agrave
ENCODING 224
SWIDTH 520 0
DWIDTH 8 0
BBX 7 10 0 0
BITMAP
30
08
00
3A
46
82
84
84
8C
76
ENDCHAR

STARTCHAR aacute
ENCODING 225
SWIDTH 520 0
DWIDTH 8 0
BBX 7 10 0 0
BITMAP
0C
10
00
3A
46
82
84
84
8C
76
ENDCHAR

STARTCHAR acircumflex
ENCODING 226
SWIDTH 520 0
DWIDTH 8 0
BBX 7 11 0 0
BITMAP
08
14
24
00
3A
46
82
84
84
8C
76
ENDCHAR

STARTCHAR atilde
ENCODING 227
SWIDTH 520 0
DWIDTH 8 0
BBX 7 10 0 0
BITMAP
1A
24
00
3A
46
82
84
84
8C
76
ENDCHAR

STARTCHAR adieresis
ENCODING 228
SWIDTH 520 0
DWIDTH 8 0
BBX 7 10 0 0
BITMAP
24
24
00
3A
46
82
84
84
8C
76
ENDCHAR

STARTCHAR aring
ENCODING 229
SWIDTH 520 0
DWIDTH 8 0
BBX 7 11 0 0
BITMAP
08
14
08
00
3A
46
82
84
84
8C
76
ENDCHAR

STARTCHAR ae
ENCODING 230
SWIDTH 820 0
DWIDTH 13 0
BBX 12 7 0 0
BITMAP
3DE0
4610
0420
7FC0
8410
8C20
73C0
ENDCHAR

STARTCHAR ccedilla
ENCODING 231
SWIDTH 460 0
DWIDTH 7 0
BBX 6 9 0 -2
BITMAP
38
44
84
80
80
8C
70
10
60
ENDCHAR

STARTCHAR egrave
ENCODING 232
SWIDTH 500 0
DWIDTH 8 0
BBX 7 10 0 0
BITMAP
30
08
00
3C
42
84
F8
82
84
78
ENDCHAR

STARTCHAR eacute
ENCODING 233
SWIDTH 500 0
DWIDTH 8 0
BBX 7 10 0 0
BITMAP
0C
10
00
3C
42
84
F8
82
84
78
ENDCHAR

STARTCHAR ecircumflex
ENCODING 234
SWIDTH 500 0
DWIDTH 8 0
BBX 7 11 0 0
BITMAP
08
14
24
00
3C
42
84
F8
82
84
78
ENDCHAR

STARTCHAR edieresis
ENCODING 235
SWIDTH 500 0
DWIDTH 8 0
BBX 7 10 0 0
BITMAP
24
24
00
3C
42
84
F8
82
84
78
ENDCHAR

STARTCHAR igrave
ENCODING 236
SWIDTH 280 0
DWIDTH 4 0
BBX 3 10 1 0
BITMAP
C0
20
00
C0
40
40
80
80
80
C0
ENDCHAR

STARTCHAR iacute
ENCODING 237
SWIDTH 280 0
DWIDTH 4 0
BBX 3 10 1 0
BITMAP
60
80
00
C0
40
40
80
80
80
C0
ENDCHAR

STARTCHAR icircumflex
ENCODING 238
SWIDTH 280 0
DWIDTH 4 0
BBX 4 11 0 0
BITMAP
20
50
90
00
60
20
20
40
40
40
60
ENDCHAR

STARTCHAR idieresis
ENCODING 239
SWIDTH 280 0
DWIDTH 4 0
BBX 3 10 1 0
BITMAP
A0
A0
00
C0
40
40
80
80
80
C0
ENDCHAR

STARTCHAR eth
ENCODING 240
SWIDTH 560 0
DWIDTH 8 0
BBX 7 11 0 0
BITMAP
CC
30
48
04
3E
42
82
82
82
84
78
ENDCHAR

STARTCHAR ntilde
ENCODING 241
SWIDTH 600 0
DWIDTH 8 0
BBX 7 10 0 0
BITMAP
1A
24
00
DC
62
42
42
84
84
86
ENDCHAR

STARTCHAR ograve
ENCODING 242
SWIDTH 560 0
DWIDTH 8 0
BBX 7 10 0 0
BITMAP
30
08
00
3C
42
82
82
82
84
78
ENDCHAR

STARTCHAR oacute
ENCODING 243
SWIDTH 560 0
DWIDTH 8 0
BBX 7 10 0 0
BITMAP
0C
10
00
3C
42
82
82
82
84
78
ENDCHAR

STARTCHAR ocircumflex
ENCODING 244
SWIDTH 560 0
DWIDTH 8 0
BBX 7 11 0 0
BITMAP
08
14
24
00
3C
42
82
82
82
84
78
ENDCHAR

STARTCHAR otilde
ENCODING 245
SWIDTH 560 0
DWIDTH 8 0
BBX 7 10 0 0
BITMAP
1A
24
00
3C
42
82
82
82
84
78
ENDCHAR

STARTCHAR odieresis
ENCODING 246
SWIDTH 560 0
DWIDTH 8 0
BBX 7 10 0 0
BITMAP
24
24
00
3C
42
82
82
82
84
78
ENDCHAR

STARTCHAR divide
ENCODING 247
SWIDTH 660 0
DWIDTH 9 0
BBX 7 7 1 1
BITMAP
10
10
00
FE
00
10
10
ENDCHAR

STARTCHAR oslash
ENCODING 248
SWIDTH 560 0
DWIDTH 8 0
BBX 7 9 0 -1
BITMAP
02
3C
46
8A
92
A2
C4
78
80
ENDCHAR

STARTCHAR ugrave
ENCODING 249
SWIDTH 580 0
DWIDTH 8 0
BBX 7 10 0 0
BITMAP
30
08
00
C6
42
42
84
84
84
7A
ENDCHAR

STARTCHAR uacute
ENCODING 250
SWIDTH 580 0
DWIDTH 8 0
BBX 7 10 0 0
BITMAP
18
20
00
C6
42
42
84
84
84
7A
ENDCHAR

STARTCHAR ucircumflex
ENCODING 251
SWIDTH 580 0
DWIDTH 8 0
BBX 7 11 0 0
BITMAP
08
14
24
00
C6
42
42
84
84
84
7A
ENDCHAR

STARTCHAR udieresis
ENCODING 252
SWIDTH 580 0
DWIDTH 8 0
BBX 7 10 0 0
BITMAP
24
24
00
C6
42
42
84
84
84
7A
ENDCHAR

STARTCHAR yacute
ENCODING 253
SWIDTH 500 0
DWIDTH 8 0
BBX 7 13 0 -3
BITMAP
0C
10
00
C6
42
42
42
44
24
18
10
A0
40
ENDCHAR

STARTCHAR thorn
ENCODING 254
SWIDTH 580 0
DWIDTH 8 0
BBX 8 14 -1 -3
BITMAP
30
10
10
10
2C
32
21
21
21
42
5C
40
40
E0
ENDCHAR

STARTCHAR ydieresis
ENCODING 255
SWIDTH 500 0
DWIDTH 8 0
BBX 7 13 0 -3
BITMAP
24
24
00
C6
42
42
42
44
24
18
10
A0
40
ENDCHAR
ENDFONT
